# xmcd CD database file generated by OrangeCD 5.2
#
# Track frame offsets:
#	150
#	12069
#	24488
#	39488
#	53403
#	67100
#	80660
#	93687
#	110161
#	120851
#
# Disc length: 1797 seconds
#
# Revision: 0
# Processed by: cddbd v1.5.2PL0 Copyright (c) Steve Scherf et al.
# Submitted via: OrangeCD 5.2
#
DISCID=7907030a
DTITLE=Donna Fargo - The Best Of
DYEAR=1900
DGENRE=Country
TTITLE0=Happiest girl in the whole USA
TTITLE1=Funny face
TTITLE2=That was yesterday
TTITLE3=Do I love you
TTITLE4=Somebody special
TTITLE5=Mocking bird hill
TTITLE6=Shame on me
TTITLE7=Another goodbye
TTITLE8=Daddy dumplin
TTITLE9=Ragamuffin man
EXTD=
EXTT0=
EXTT1=
EXTT2=
EXTT3=
EXTT4=
EXTT5=
EXTT6=
EXTT7=
EXTT8=
EXTT9=
PLAYORDER=
